<?xml version="1.0" encoding="UTF-8" standalone="no"?>
<!-- Created with Inkscape (http://www.inkscape.org/) -->

<svg
   width="210mm"
   height="297mm"
   viewBox="0 0 210 297"
   version="1.1"
   id="svg1"
   inkscape:export-filename="logos.svg"
   inkscape:export-xdpi="96"
   inkscape:export-ydpi="96"
   inkscape:version="1.4 (e7c3feb100, 2024-10-09)"
   sodipodi:docname="logos.svg"
   xmlns:inkscape="http://www.inkscape.org/namespaces/inkscape"
   xmlns:sodipodi="http://sodipodi.sourceforge.net/DTD/sodipodi-0.dtd"
   xmlns="http://www.w3.org/2000/svg"
   xmlns:svg="http://www.w3.org/2000/svg">
  <sodipodi:namedview
     id="namedview1"
     pagecolor="#ffffff"
     bordercolor="#000000"
     borderopacity="0.25"
     inkscape:showpageshadow="2"
     inkscape:pageopacity="0.0"
     inkscape:pagecheckerboard="0"
     inkscape:deskcolor="#d1d1d1"
     inkscape:document-units="mm"
     inkscape:zoom="0.49638341"
     inkscape:cx="91.663015"
     inkscape:cy="537.89066"
     inkscape:window-width="1876"
     inkscape:window-height="1003"
     inkscape:window-x="0"
     inkscape:window-y="0"
     inkscape:window-maximized="1"
     inkscape:current-layer="layer1" />
  <defs
     id="defs1">
    <rect
       x="424.85192"
       y="85.619301"
       width="530.05511"
       height="232.12878"
       id="rect28" />
    <rect
       x="424.85192"
       y="85.619301"
       width="530.05511"
       height="232.12878"
       id="rect29" />
    <rect
       x="424.85192"
       y="85.619301"
       width="530.05511"
       height="232.12878"
       id="rect36" />
    <rect
       x="424.85192"
       y="85.619301"
       width="530.05511"
       height="232.12878"
       id="rect38" />
  </defs>
  <g
     inkscape:label="Layer 1"
     inkscape:groupmode="layer"
     id="layer1">
    <g
       id="path42" />
    <path
       id="path53"
       style="fill:#604e4d;fill-opacity:1;stroke-width:1.50576"
       d="m 101.99606,47.765104 11.50922,16.431632 h 9.24333 L 111.23938,47.765104 Z m 14.52523,20.73699 4.14663,5.919963 -4.14663,5.919964 h 9.24332 l 4.14663,-5.919964 -4.14663,-5.919963 z m -3.01601,16.146062 -11.50845,16.430864 h 9.24255 l 11.50923,-16.430864 z"
       inkscape:export-filename="logo.svg"
       inkscape:export-xdpi="96"
       inkscape:export-ydpi="96" />
    <path
       id="path48"
       style="fill:#b00b50;stroke-width:1.50576"
       d="m 101.7595,47.427398 11.74578,16.769338 h 28.9781 V 47.427398 Z" />
    <path
       id="path50"
       style="fill:#b00b50;stroke-width:1.50576"
       d="m 113.50528,84.648156 -11.745,16.768564 h 40.7231 V 84.648156 Z" />
    <path
       id="path58"
       style="fill:#b00b50;stroke-width:1.50576"
       d="M 67.516619,35.143163 95.03184,74.422057 67.516619,113.70174 H 87.78206 L 115.29497,74.422057 87.78206,35.143163 Z" />
    <g
       id="g1"
       transform="translate(-9.553985,-3.7690355)">
      <text
         xml:space="preserve"
         transform="matrix(0.4119797,0,0,0.4119797,-82.843155,126.99863)"
         id="text32"
         style="font-style:normal;font-variant:normal;font-weight:800;font-stretch:normal;font-size:96px;font-family:'JetBrainsMono Nerd Font';-inkscape-font-specification:'JetBrainsMono Nerd Font, Ultra-Bold';font-variant-ligatures:normal;font-variant-caps:normal;font-variant-numeric:normal;font-variant-east-asian:normal;text-align:start;letter-spacing:0px;writing-mode:lr-tb;direction:ltr;white-space:pre;shape-inside:url(#rect36);fill:#b00b50;fill-opacity:1;stroke:none;stroke-width:75.5906;stroke-dasharray:none;stroke-dashoffset:0;stroke-opacity:1"><tspan
           x="424.85156"
           y="171.80096"
           id="tspan2">ONAD</tspan></text>
      <path
         id="path61"
         style="fill:#604e4d;fill-opacity:1"
         d="m 87.68871,171.28436 -10.91251,7.64345 v 6.13864 l 10.91251,-7.64346 z m -13.77177,9.64643 -3.93154,2.75383 -3.93154,-2.75383 v 6.13864 l 3.93154,2.75384 3.93154,-2.75384 z m -10.72286,-2.00298 -10.91199,-7.64294 v 6.13812 l 10.91199,7.64346 z" />
      <path
         id="path62"
         style="fill:#b00b50"
         d="m 87.91299,171.12726 -11.13679,7.80055 v 19.24482 h 11.13679 z" />
      <path
         id="path63"
         style="fill:#b00b50"
         d="m 63.19408,178.92781 -11.13627,-7.80003 v 27.04485 h 11.13627 z" />
      <path
         id="path64"
         style="fill:#b00b50"
         d="M 96.07115,148.386 69.9854,166.65931 43.89914,148.386 v 13.45862 l 26.08626,18.27175 26.08575,-18.27175 z" />
    </g>
  </g>
</svg>
